<svg id="vectors" xmlns="http://www.w3.org/2000/svg" viewBox="0 0 300 130"><defs><style>.cls-1{fill:#1c3c64;}.cls-2,.cls-3{fill:none;stroke-linecap:round;stroke-linejoin:round;stroke-width:3px;}.cls-2{stroke:#1c3c64;}.cls-3{stroke:#4e9dbc;}</style></defs><title>kitty_basefile</title><rect class="cls-1" x="231.87" y="34.48" width="15.19" height="31.44"/><rect class="cls-1" x="231.87" y="20.77" width="15.19" height="9.95"/><line class="cls-2" x1="74.56" y1="15.65" x2="17.44" y2="114.69"/><circle class="cls-2" cx="63.07" cy="107.48" r="15.82"/><circle class="cls-2" cx="117.49" cy="93.19" r="12.38"/><line class="cls-2" x1="40.96" y1="73.92" x2="58.02" y2="92.49"/><line class="cls-2" x1="23.86" y1="103.56" x2="47.47" y2="110.08"/><line class="cls-2" x1="69.86" y1="93.19" x2="106.83" y2="86.9"/><path class="cls-2" d="M75.77,116.91c.72-1.06,35.41-13.08,35.41-13.08"/><path class="cls-2" d="M147.94,47.79S156,50,160.3,44.2s13.07-20.79,13.07-20.79.7-4.29-4.13-3.07"/><path class="cls-2" d="M141.18,43.75a11,11,0,0,1-1.79-12.57,139.57,139.57,0,0,1,8.19-14.75s5.21-1.91,4.52,3.17"/><path class="cls-2" d="M150.35,37.58s3-6.17-2.41-10.37L158.19,8.47s3.86-2.88,4.67,2.13l-8.48,14.13"/><path class="cls-2" d="M162.47,30.13c.29-.38,8.38-13,8.38-13s1.2-4.38-2.68-4.71l-9.91,15.59"/><path class="cls-2" d="M168.17,12.46s.4-6.56-5.33-2"/><polyline class="cls-2" points="113.99 81.31 133.02 48.94 147.94 57.91 129.32 89.51"/><polygon class="cls-1" points="192.3 122.89 226.65 122.89 226.65 111.07 209.47 111.07 209.47 105.72 224.87 105.72 224.87 94.91 209.47 94.91 209.47 89.56 226.65 89.56 226.65 77.74 192.3 77.74 192.3 122.89"/><polygon class="cls-1" points="231.4 77.74 231.4 122.89 265.25 122.89 265.25 111.05 248.92 111.05 248.92 77.74 231.4 77.74"/><path class="cls-1" d="M148.5,110.08h16v.44a3.41,3.41,0,0,0,3.78,3.68c5.41,0,4.19-3.91,4.19-3.91s-1.33-3.19-4.09-3.19c-3.16,0-19.91-3.32-19.91-14.76s8.48-14.6,13.17-14.6h13.38s14.3.09,14.3,13.47h-16v-.44a3.41,3.41,0,0,0-3.78-3.68c-5.41,0-4.19,3.91-4.19,3.91s1.33,3.19,4.09,3.19c3.16,0,19.91,3.32,19.91,14.76s-8.48,14.6-13.17,14.6H162.8S148.5,123.46,148.5,110.08Z"/><path class="cls-1" d="M268.5,34.48c-10.92,0-19.77,7-19.77,15.72s8.85,15.72,19.77,15.72,19.77-7,19.77-15.72S279.42,34.48,268.5,34.48Zm-.09,24.38c-2.31,0-4.19-3.79-4.19-8.47s1.88-8.48,4.19-8.48,4.2,3.79,4.2,8.48S270.73,58.86,268.41,58.86Z"/><path class="cls-1" d="M219,42.31s9.82-.69,9.82-10.51-9.65-11-9.65-11l-32.4,1V65.92H219s9.82-3.44,9.82-12.41S219,42.31,219,42.31Zm-10.64,14.4c-.15.14-5.48,0-5.48,0V47.6h5.3s4,.75,4,4.59S208.51,56.56,208.37,56.71Zm0-17.47c-.15.14-5.48,0-5.48,0V30.13h5.3s4,.75,4,4.59S208.51,39.1,208.37,39.24Z"/><circle class="cls-3" cx="63.07" cy="107.48" r="7.2"/><circle class="cls-3" cx="117.49" cy="93.19" r="5.64"/><line class="cls-3" x1="145.46" y1="45.2" x2="141.21" y2="52.68"/></svg>